<svg id="svg" xmlns="http://www.w3.org/2000/svg" xmlns:xlink="http://www.w3.org/1999/xlink" width="400" height="400" viewBox="0, 0, 400,400"><g id="svgg"><path id="path0" d="M192.222 8.711 C 76.140 13.075,-9.904 121.984,12.564 236.111 C 32.549 337.627,128.484 404.658,230.406 388.319 C 337.658 371.126,408.810 268.434,387.449 161.667 C 371.825 83.578,308.434 23.156,229.230 10.856 C 220.914 9.565,203.735 8.216,198.611 8.452 C 197.389 8.508,194.514 8.625,192.222 8.711 M211.667 26.696 C 359.762 37.247,427.725 216.799,323.334 321.711 C 231.689 413.813,75.556 376.749,35.292 253.333 C -2.660 137.004,89.934 18.023,211.667 26.696 M192.971 54.646 C 170.601 60.319,166.607 89.827,186.762 100.519 L 189.268 101.849 189.634 121.015 C 190.093 145.047,190.109 178.039,189.663 178.485 C 189.477 178.671,186.665 177.172,183.413 175.156 C 180.161 173.139,171.250 167.676,163.611 163.016 C 142.817 150.332,143.584 150.868,142.241 148.095 C 141.571 146.709,140.914 143.980,140.734 141.824 L 140.414 138.007 144.161 135.816 C 166.947 122.490,156.734 87.587,130.633 89.587 C 106.119 91.465,99.338 124.461,121.083 136.051 L 124.444 137.843 124.464 141.838 C 124.491 147.373,125.713 153.696,127.399 157.023 C 130.189 162.529,131.367 163.376,168.056 186.260 L 189.722 199.775 190.030 218.915 C 190.358 239.312,190.518 240.543,193.223 243.459 C 197.344 247.904,203.099 246.537,208.119 239.921 C 209.349 238.300,215.356 234.310,231.667 224.282 C 237.625 220.618,245.194 215.906,248.487 213.810 C 255.499 209.348,254.821 209.474,258.305 211.977 C 278.172 226.250,306.238 204.796,296.717 182.613 C 286.717 159.316,248.889 165.628,248.889 190.594 L 248.889 192.653 228.194 205.501 L 207.500 218.348 207.335 204.591 C 207.074 182.800,204.480 186.369,233.521 168.557 C 266.097 148.577,266.869 147.940,270.146 138.333 C 270.303 137.875,271.980 136.909,273.875 136.186 C 298.595 126.754,289.254 88.149,262.590 89.548 C 238.584 90.808,230.732 121.284,250.798 135.316 L 252.430 136.456 245.520 140.672 C 219.604 156.484,207.510 163.803,207.446 163.714 C 207.405 163.657,207.199 149.830,206.988 132.987 L 206.605 102.363 209.701 100.616 C 231.740 88.178,224.529 56.200,199.231 54.190 C 197.310 54.038,194.589 54.236,192.971 54.646 M200.649 71.683 C 208.611 73.895,207.599 86.134,199.377 87.061 C 189.814 88.139,187.067 73.852,196.389 71.518 C 198.166 71.073,198.499 71.086,200.649 71.683 M136.498 107.198 C 139.075 108.769,140.214 110.820,140.214 113.889 C 140.214 122.295,129.160 124.730,125.258 117.184 C 121.803 110.503,129.990 103.230,136.498 107.198 M267.621 107.039 C 272.922 109.555,273.052 118.106,267.830 120.806 C 263.965 122.805,258.755 121.236,257.004 117.546 C 253.669 110.519,260.568 103.692,267.621 107.039 M277.677 185.572 C 280.116 187.059,281.911 191.023,281.394 193.779 C 280.064 200.867,269.518 202.348,266.448 195.880 C 263.079 188.779,271.004 181.504,277.677 185.572 M210.833 261.759 C 208.007 263.322,206.183 266.551,192.366 294.444 C 174.393 330.727,174.639 330.079,177.219 334.311 C 180.827 340.229,187.634 339.466,191.396 332.723 C 198.420 320.134,222.374 270.376,222.374 268.374 C 222.374 263.080,215.533 259.160,210.833 261.759 M149.492 264.861 C 146.338 266.548,117.960 290.754,115.880 293.532 C 113.172 297.150,113.373 300.770,116.484 304.405 C 118.930 307.263,145.505 330.170,148.859 332.312 C 156.323 337.078,164.612 329.987,160.848 322.055 C 159.830 319.909,159.271 319.389,144.058 306.448 L 135.061 298.795 143.557 291.481 C 148.230 287.458,153.688 282.792,155.687 281.111 C 162.149 275.678,163.794 271.356,160.972 267.222 C 158.263 263.252,154.101 262.397,149.492 264.861 M243.135 263.880 C 238.401 265.372,236.349 271.261,239.031 275.655 C 240.204 277.578,246.004 282.846,259.168 293.946 L 264.837 298.725 258.689 303.946 C 238.825 320.815,237.293 322.495,238.051 326.582 C 238.965 331.518,242.207 334.192,246.749 333.755 C 250.212 333.423,250.710 333.059,268.333 317.997 C 291.783 297.954,291.780 299.814,268.413 279.949 C 248.748 263.230,247.570 262.481,243.135 263.880 " stroke="none" fill="#000000" fill-rule="evenodd"></path></g></svg>