<?xml version="1.0" standalone="no"?>
<!DOCTYPE svg PUBLIC "-//W3C//DTD SVG 20010904//EN"
 "http://www.w3.org/TR/2001/REC-SVG-20010904/DTD/svg10.dtd">
<svg version="1.0" xmlns="http://www.w3.org/2000/svg"
 width="717.000000pt" height="756.000000pt" viewBox="0 0 717.000000 756.000000"
 preserveAspectRatio="xMidYMid meet">

<g transform="translate(0.000000,756.000000) scale(0.100000,-0.100000)"
fill="#000000" stroke="none">
<path d="M2600 7203 c-207 -19 -446 -109 -650 -244 -116 -78 -304 -261 -383
-375 -58 -85 -154 -277 -177 -354 -15 -49 -36 -80 -56 -80 -21 0 -145 -68
-190 -105 -49 -40 -123 -148 -147 -216 -10 -25 -20 -83 -24 -128 l-6 -83 -91
-68 c-136 -102 -281 -261 -355 -389 -136 -240 -191 -445 -191 -713 1 -299 75
-541 239 -773 159 -226 437 -423 688 -487 21 -5 65 -17 98 -26 52 -14 170 -17
930 -21 l870 -6 3 -400 c4 -512 -8 -639 -76 -774 -52 -105 -197 -223 -362
-295 -57 -25 -83 -30 -210 -37 -80 -5 -158 -11 -175 -14 -107 -23 -195 -67
-320 -161 l-79 -59 -120 5 c-218 9 -305 5 -380 -19 -148 -46 -272 -133 -296
-207 -19 -57 -8 -129 27 -172 68 -84 140 -96 250 -40 95 48 168 68 251 68 77
0 102 -6 102 -24 0 -6 -11 -33 -25 -61 -33 -67 -32 -110 4 -168 52 -81 148
-109 229 -68 20 11 70 44 111 75 84 63 106 70 91 30 -34 -89 24 -201 125 -239
40 -16 51 -16 86 -5 52 17 78 41 124 115 21 33 77 100 125 150 110 114 136
165 155 297 4 35 12 51 32 63 28 18 103 33 103 20 0 -4 -15 -40 -34 -79 -53
-110 -69 -184 -68 -321 0 -181 34 -297 107 -365 23 -22 36 -25 95 -25 61 0 72
3 107 31 68 55 78 84 76 208 -1 60 0 113 3 118 10 16 44 -23 109 -122 87 -132
144 -157 243 -108 66 33 95 85 95 168 0 81 -29 145 -108 245 -84 104 -83 96
-30 165 25 33 48 60 51 60 2 0 44 -39 92 -87 69 -70 105 -97 175 -133 49 -24
91 -48 93 -52 3 -4 -8 -36 -24 -70 -44 -95 -54 -133 -54 -206 0 -97 36 -163
109 -201 39 -20 105 -13 150 16 45 29 54 43 89 151 28 84 47 123 82 169 28 37
34 39 56 17 12 -12 16 -36 16 -100 0 -193 61 -282 187 -272 65 6 117 43 151
109 21 41 23 53 18 179 -5 163 -10 191 -47 245 -16 24 -29 47 -29 52 0 16
-132 144 -157 154 -13 5 -23 16 -23 25 0 15 8 16 66 10 67 -7 112 -23 131 -48
9 -12 24 -76 38 -163 7 -43 26 -107 35 -115 3 -3 20 -27 37 -55 65 -103 153
-163 219 -151 82 16 148 78 159 152 3 24 9 44 13 44 4 0 30 -12 57 -25 56 -28
101 -31 148 -11 70 29 117 100 117 177 0 47 6 51 56 38 46 -12 68 -22 154 -71
102 -60 184 -49 254 33 41 48 55 110 37 169 -24 80 -134 161 -306 226 -65 25
-86 27 -285 33 -242 8 -238 7 -365 92 -73 49 -96 62 -175 97 -55 25 -120 41
-225 57 -251 38 -354 76 -443 165 -53 53 -109 152 -122 217 -5 21 -13 63 -19
93 -8 37 -10 211 -9 520 l3 465 830 6 c730 5 838 7 895 22 350 90 601 255 809
532 89 118 136 202 191 340 33 82 57 177 75 296 34 228 7 451 -80 669 -104
259 -272 459 -507 604 -43 27 -78 49 -78 51 0 1 5 27 10 56 21 107 -23 246
-109 341 -88 99 -195 149 -320 150 -71 1 -74 2 -92 32 -10 17 -19 37 -19 44 0
25 -90 200 -150 292 -120 184 -342 374 -550 473 -121 57 -149 67 -275 99 -112
29 -132 31 -300 31 -201 1 -267 -9 -455 -70 -75 -24 -216 -90 -265 -123 -16
-11 -36 -20 -42 -20 -7 0 -41 17 -75 38 -66 40 -117 65 -208 102 -30 12 -64
26 -75 31 -39 17 -221 58 -305 69 -78 9 -258 11 -340 3z m435 -153 c208 -49
331 -100 468 -194 37 -25 76 -46 87 -46 11 0 39 12 62 26 82 52 245 123 348
152 158 44 219 53 368 53 192 -1 352 -37 518 -117 317 -154 547 -419 654 -755
37 -115 39 -117 150 -100 88 14 128 8 203 -32 78 -41 123 -99 153 -195 18 -60
18 -86 -2 -162 -9 -34 -13 -72 -10 -83 3 -14 29 -35 68 -56 256 -138 446 -355
540 -616 53 -144 63 -215 62 -420 -1 -200 -6 -235 -64 -404 -69 -206 -237
-436 -415 -572 -119 -91 -284 -178 -405 -212 -157 -45 -194 -47 -991 -47 -417
0 -760 3 -762 8 -3 4 18 40 46 80 29 40 75 105 102 144 112 161 112 160 216
192 52 15 105 32 119 36 14 5 83 25 153 45 l129 37 51 -22 c82 -36 175 -9 236
69 17 21 43 42 58 45 16 4 57 17 93 30 59 22 165 56 232 76 18 6 35 3 55 -7
15 -9 60 -18 98 -20 93 -7 157 19 219 88 128 143 90 346 -81 430 -67 33 -159
33 -226 0 -57 -27 -120 -88 -142 -135 -15 -31 -26 -37 -213 -101 -130 -45
-221 -70 -267 -75 -38 -3 -96 -17 -128 -29 -112 -44 -96 -18 130 211 115 117
267 272 337 344 119 123 130 132 174 139 94 14 180 75 225 159 17 32 22 58 21
116 0 87 -16 128 -75 189 -106 113 -292 107 -395 -12 -53 -62 -65 -91 -71
-172 l-6 -72 -155 -149 c-85 -82 -158 -150 -163 -152 -9 -4 -14 12 -30 113
-12 72 -18 84 -55 121 -73 74 -189 66 -252 -17 -37 -48 -45 -85 -34 -147 6
-31 14 -82 17 -112 3 -30 10 -77 15 -105 5 -27 11 -76 14 -109 l6 -59 -177
-181 c-98 -99 -238 -243 -312 -318 -74 -76 -138 -138 -143 -138 -4 0 -8 64 -8
141 l0 142 99 201 c54 110 109 224 121 251 13 28 45 97 72 155 114 246 109
238 157 262 24 13 57 40 73 62 26 36 28 46 28 126 0 47 4 90 9 96 4 5 23 45
40 89 18 44 36 89 41 100 5 11 23 54 39 95 26 63 37 79 68 95 88 47 131 105
152 203 24 116 -42 240 -157 294 -54 26 -160 28 -215 4 -51 -22 -114 -81 -139
-130 -32 -62 -36 -161 -9 -221 27 -62 27 -74 -9 -152 -16 -35 -30 -66 -30 -68
0 -2 -13 -32 -29 -67 -16 -35 -41 -89 -55 -121 -14 -31 -41 -74 -60 -94 -26
-28 -39 -55 -52 -108 -12 -49 -36 -100 -81 -172 -35 -57 -63 -105 -63 -108 0
-2 -18 -35 -40 -72 -22 -38 -44 -74 -48 -82 -30 -53 -32 -20 -32 466 l0 489
28 40 c16 21 36 58 45 82 75 191 -109 398 -307 347 -87 -23 -140 -62 -184
-134 -23 -39 -27 -57 -27 -121 0 -78 21 -137 67 -187 19 -21 20 -34 19 -565
-1 -298 -5 -546 -9 -550 -6 -5 -187 279 -201 316 -2 5 -80 134 -173 285 -163
264 -169 277 -164 316 18 112 18 128 1 182 -38 119 -172 201 -286 175 -72 -17
-111 -37 -158 -83 -73 -69 -99 -170 -68 -271 17 -57 86 -130 150 -161 53 -25
56 -28 147 -187 50 -89 89 -164 86 -168 -4 -3 -40 3 -82 13 -69 17 -79 17
-117 4 -24 -9 -54 -31 -72 -53 -27 -34 -30 -45 -30 -108 0 -69 1 -70 41 -108
34 -32 63 -45 160 -75 66 -20 130 -40 144 -44 14 -5 52 -16 85 -26 115 -33
110 -29 189 -159 40 -66 84 -139 96 -161 12 -22 49 -83 81 -136 58 -94 59 -97
59 -170 0 -82 -10 -102 -44 -89 -18 8 -75 26 -336 106 -25 7 -79 24 -120 38
-41 13 -117 37 -169 52 l-95 29 -45 73 c-25 39 -73 120 -106 178 -33 58 -109
185 -168 282 -93 153 -107 181 -102 207 4 17 9 60 12 96 8 109 -44 195 -151
252 -32 17 -58 22 -116 21 -89 0 -123 -15 -193 -83 -92 -89 -113 -200 -57
-297 35 -61 97 -117 154 -139 42 -16 45 -20 109 -135 16 -30 41 -72 54 -92 12
-21 23 -40 23 -42 0 -3 22 -42 50 -88 27 -46 50 -86 50 -90 0 -11 -34 -10 -62
1 -13 5 -90 28 -173 51 -161 45 -215 64 -215 79 0 20 -92 103 -135 121 -224
96 -463 -147 -360 -365 70 -146 225 -204 364 -134 l61 31 73 -25 c39 -14 95
-32 122 -40 28 -8 97 -29 155 -47 58 -17 116 -36 130 -40 14 -5 71 -23 128
-41 87 -27 107 -36 129 -66 40 -53 105 -86 167 -86 28 0 62 5 73 12 44 23 53
20 486 -128 82 -28 157 -56 168 -61 17 -10 19 -22 19 -124 0 -95 -3 -115 -16
-120 -9 -3 -376 -6 -817 -6 -881 0 -890 1 -1072 61 -183 61 -325 149 -460 284
-133 133 -235 303 -279 465 -10 36 -22 75 -27 88 -5 13 -14 80 -20 148 -12
130 -2 308 22 412 33 140 104 308 174 412 87 129 242 282 356 351 100 60 103
66 90 141 -13 76 -6 126 26 195 46 98 193 207 186 138 -10 -105 -14 -250 -9
-279 8 -42 39 -62 80 -52 41 10 50 41 57 191 7 162 30 265 94 425 51 127 80
181 154 284 181 254 460 435 796 516 138 34 399 34 540 0z m621 -1016 c75 -36
107 -148 62 -214 -40 -58 -72 -75 -143 -75 -59 0 -66 3 -99 34 -71 69 -72 152
-3 218 23 22 49 43 57 46 31 11 93 6 126 -9z m917 -13 c63 -27 97 -79 97 -149
0 -90 -63 -152 -154 -152 -137 0 -212 133 -135 239 29 41 93 80 131 81 9 0 37
-9 61 -19z m-1886 -282 c35 -22 73 -91 73 -132 0 -136 -180 -208 -274 -111
-61 63 -59 149 5 213 62 62 128 72 196 30z m963 -680 c0 -563 2 -597 39 -600
57 -4 80 19 161 166 18 33 44 77 57 97 12 21 23 40 23 43 0 2 17 33 38 67 20
35 46 79 57 100 10 20 27 47 36 60 l18 23 38 -22 c21 -12 42 -29 48 -37 7 -11
-44 -121 -195 -423 l-205 -408 -3 -250 c-3 -274 -1 -287 53 -287 30 0 25 -5
263 247 126 133 249 262 409 427 79 81 143 153 143 160 0 7 -7 65 -15 128 -8
63 -20 153 -25 200 -5 47 -12 95 -15 107 -12 52 34 93 90 79 35 -9 45 -34 56
-139 20 -193 34 -237 75 -237 4 0 98 93 208 206 l201 206 48 -37 c26 -20 47
-41 45 -46 -2 -5 -123 -129 -269 -276 -414 -417 -519 -531 -519 -563 0 -35 32
-64 62 -57 22 5 47 12 134 38 65 19 75 10 72 -62 l-3 -61 -40 -13 c-34 -12
-112 -33 -270 -75 -118 -32 -154 -43 -185 -58 -34 -17 -81 -76 -306 -392 l-75
-104 3 -546 c4 -556 5 -565 46 -715 46 -168 139 -284 288 -359 96 -48 236 -86
317 -86 127 0 270 -50 417 -145 166 -107 195 -115 421 -115 147 0 187 -3 237
-19 117 -38 205 -91 231 -139 15 -28 -2 -69 -35 -84 -22 -10 -31 -9 -58 6 -17
11 -67 38 -111 60 l-80 41 -179 -2 c-98 -1 -180 -4 -183 -7 -12 -11 23 -50 73
-82 64 -41 83 -72 66 -109 -16 -34 -57 -42 -96 -20 -46 27 -184 146 -238 205
-61 67 -82 65 -86 -8 -4 -72 21 -162 63 -227 39 -62 42 -80 18 -107 -28 -31
-68 -23 -113 25 -64 66 -93 136 -105 247 -8 83 -40 147 -91 182 -59 40 -141
60 -344 84 -121 14 -250 57 -332 111 -45 31 -84 27 -105 -8 -23 -37 -6 -75 65
-144 55 -54 159 -112 312 -176 88 -37 146 -76 201 -137 78 -87 109 -172 109
-297 0 -113 -46 -177 -105 -145 -24 13 -25 17 -25 116 0 78 -4 113 -19 147
-36 85 -135 171 -188 165 -22 -2 -29 -12 -43 -53 -9 -27 -37 -81 -62 -120 -50
-78 -78 -143 -78 -181 0 -36 -44 -77 -73 -68 -39 12 -48 34 -43 104 4 51 15
84 51 154 25 48 45 101 45 116 0 44 -35 76 -141 131 -157 81 -236 163 -279
292 -37 110 -90 114 -125 10 -21 -60 -93 -169 -144 -217 -23 -22 -31 -39 -31
-64 0 -43 6 -53 85 -148 136 -162 155 -283 43 -275 -9 0 -37 34 -63 78 -26 42
-71 102 -100 132 -30 31 -66 73 -82 93 -48 63 -79 55 -123 -31 -18 -36 -20
-59 -20 -200 0 -160 0 -161 -25 -177 -34 -22 -71 -11 -92 29 -26 49 -32 306
-8 393 25 94 92 198 199 311 101 106 119 134 105 170 -15 42 -47 38 -162 -21
-59 -30 -140 -64 -179 -76 -206 -61 -217 -70 -250 -219 -24 -108 -50 -153
-147 -250 -43 -43 -95 -104 -117 -137 -44 -67 -65 -76 -100 -43 -50 47 -25
104 101 238 51 54 97 106 103 117 10 19 37 139 46 207 4 32 1 40 -20 54 -22
14 -34 15 -111 3 -173 -26 -240 -80 -277 -225 -24 -92 -70 -161 -153 -228 -83
-67 -113 -77 -142 -48 -35 35 -26 57 63 150 75 78 109 131 93 147 -3 3 -63 7
-133 8 -71 2 -170 7 -219 11 -106 9 -160 -3 -269 -60 -37 -19 -77 -35 -88 -35
-48 0 -76 64 -45 102 33 43 180 108 288 128 51 9 84 9 137 1 39 -6 113 -11
165 -11 111 0 157 16 242 86 140 113 201 135 405 144 136 6 164 10 228 34 203
78 389 220 454 348 100 194 108 272 108 1059 0 573 -1 618 -17 638 -18 21 -46
32 -457 172 -109 37 -202 71 -206 76 -3 4 -4 37 -1 73 5 58 8 65 26 62 29 -4
349 -106 500 -159 163 -58 208 -63 241 -32 23 22 24 27 24 160 l0 138 -134
218 c-73 120 -146 241 -161 268 -46 85 -68 101 -179 135 -55 17 -112 35 -126
40 -14 5 -78 25 -143 45 -101 31 -119 40 -127 61 -14 35 -2 74 26 86 26 12 24
13 196 -42 106 -34 161 -36 166 -7 2 11 -36 85 -87 168 -50 82 -91 152 -91
155 0 3 -18 32 -40 65 -46 69 -49 85 -17 95 12 3 33 14 47 23 14 10 32 16 40
14 8 -2 60 -79 115 -171 55 -92 164 -272 242 -400 79 -128 143 -235 143 -237
0 -2 25 -45 55 -95 30 -50 55 -94 55 -97 0 -14 55 -63 70 -63 9 0 25 9 36 21
18 20 19 49 24 648 l5 626 55 5 c41 4 58 1 68 -9 9 -12 12 -139 12 -562z m793
563 c47 -8 46 -16 -21 -162 -11 -25 -31 -70 -45 -101 -14 -31 -29 -59 -35 -63
-11 -7 -99 21 -107 35 -3 4 12 43 33 86 22 43 50 103 62 133 29 69 49 93 69
84 9 -4 29 -9 44 -12z m1051 -346 c18 -7 47 -31 64 -52 28 -33 32 -46 32 -94
0 -50 -4 -61 -35 -97 -65 -76 -162 -83 -228 -16 -67 66 -72 138 -15 207 51 62
114 80 182 52z m-1193 -75 c35 -36 38 -84 8 -121 -18 -21 -30 -25 -75 -25 -69
0 -99 26 -99 86 0 84 104 122 166 60z m-2386 -105 c27 -16 50 -41 66 -70 22
-42 23 -48 11 -93 -15 -55 -41 -87 -94 -114 -48 -24 -89 -24 -138 1 -43 22
-90 91 -90 132 0 82 86 167 169 168 19 0 53 -11 76 -24z m155 -433 c28 -49 55
-95 60 -103 5 -8 64 -107 131 -220 67 -113 123 -208 126 -213 2 -4 -10 -15
-28 -25 -59 -31 -108 -82 -119 -122 -6 -21 -16 -40 -22 -42 -7 -3 -44 6 -82
19 -39 12 -132 41 -206 63 -74 23 -146 45 -160 50 -14 5 -59 18 -100 30 -41
12 -80 27 -87 34 -17 16 6 104 29 112 10 3 53 -6 96 -19 42 -14 104 -32 137
-42 33 -10 78 -23 100 -31 212 -69 277 -79 283 -39 1 11 -24 64 -58 118 -33
54 -60 100 -60 102 0 3 -37 64 -82 137 -44 73 -91 152 -103 175 -22 39 -22 43
-6 57 10 9 22 16 28 16 6 0 16 7 23 15 27 32 48 17 100 -72z m-690 -253 c46
-12 95 -64 108 -112 21 -79 -33 -170 -118 -198 -56 -18 -120 7 -162 64 -27 37
-29 47 -26 103 3 55 8 67 38 98 48 49 96 63 160 45z m4383 -18 c58 -39 84
-103 68 -172 -19 -83 -114 -144 -191 -121 -54 16 -96 54 -115 105 -15 38 -15
50 -5 83 15 45 42 81 78 105 37 24 128 24 165 0z m-342 -217 c11 -25 19 -53
17 -62 -4 -19 -279 -115 -297 -104 -13 9 -51 80 -51 97 0 6 57 30 128 54 70
23 134 46 142 51 29 16 41 9 61 -36z m-410 -123 c25 -23 32 -36 33 -70 1 -48
-21 -77 -72 -91 -26 -8 -37 -5 -64 13 -62 41 -61 127 2 161 38 21 67 18 101
-13z m-2524 -64 c47 -51 42 -127 -10 -158 -45 -28 -89 -25 -126 6 -26 22 -31
33 -31 71 0 37 5 50 31 74 40 38 105 41 136 7z m-60 -2804 c9 -23 -20 -68
-100 -154 -85 -92 -100 -102 -91 -63 13 58 45 148 60 171 15 23 85 61 112 62
7 0 15 -7 19 -16z"/>
</g>
</svg>
