<svg xmlns="http://www.w3.org/2000/svg" width="500" height="500" viewBox="0 0 500 500">
<g>
<path d="M 143.00 217.88 C143.00,219.35 140.33,219.18 136.00,217.43 L 132.50 216.02 L 135.73 216.58 C140.97,217.50 141.39,216.36 138.04,210.41 C136.36,207.44 135.18,205.00 135.42,205.00 C136.13,205.00 143.00,216.67 143.00,217.88 ZM 191.00 167.66 C191.00,169.16 189.48,169.28 186.50,168.00 C184.59,167.18 184.60,167.14 186.75,167.07 C189.62,166.98 189.59,165.35 186.66,160.98 C182.70,155.09 180.58,151.45 181.71,152.50 C183.66,154.30 191.00,166.28 191.00,167.66 Z" fill="rgb(13,55,83)"/>
<path d="M 218.68 468.47 C213.61,471.80 208.04,471.06 202.87,466.38 C199.97,463.76 198.50,456.06 198.50,443.50 C198.50,431.69 198.56,431.39 202.14,424.25 C206.01,416.55 205.66,415.57 200.07,418.46 C197.15,419.97 196.00,421.82 196.00,425.00 C196.00,429.17 191.68,436.36 184.77,443.70 C180.74,447.99 176.22,453.15 174.73,455.17 C171.67,459.31 166.51,461.49 162.05,460.51 C160.43,460.16 157.45,458.03 155.43,455.79 C151.93,451.92 151.78,451.45 152.30,446.40 L 152.85 441.08 L 145.68 446.54 C141.74,449.54 137.12,452.26 135.42,452.58 C131.08,453.40 125.44,450.77 123.03,446.81 C120.48,442.63 120.47,439.38 123.00,435.23 C124.10,433.43 125.00,431.74 125.00,431.48 C125.00,431.21 121.07,431.00 116.26,431.00 C108.25,431.00 106.91,431.30 100.27,434.58 C93.65,437.85 92.72,438.06 89.52,437.01 C84.68,435.41 80.00,429.52 80.00,425.02 C80.01,417.90 85.20,413.16 98.74,407.92 C103.88,405.94 106.19,405.71 120.33,405.81 L 136.16 405.93 L 143.33 400.59 C155.20,391.74 160.16,390.03 174.00,390.00 C184.30,389.97 188.79,388.82 198.20,383.81 C210.21,377.42 215.68,370.61 218.60,358.48 C219.95,352.83 220.30,345.86 220.39,322.00 L 220.50 292.50 L 159.50 291.90 C125.95,291.56 97.15,290.96 95.50,290.55 C73.04,284.96 61.25,278.37 47.22,263.55 C40.67,256.63 38.02,252.85 34.00,244.70 C26.75,229.99 24.74,221.51 24.61,205.00 C24.47,187.56 26.33,179.15 33.61,164.31 C38.28,154.79 40.42,151.74 47.97,143.81 C52.85,138.69 59.27,132.93 62.24,131.01 L 67.63 127.52 L 68.78 120.29 C69.41,116.32 70.82,111.32 71.90,109.19 C74.86,103.40 83.70,95.88 90.84,93.10 C95.89,91.13 97.00,90.29 97.00,88.41 C97.00,87.15 97.45,85.84 98.00,85.50 C98.55,85.16 99.01,84.12 99.01,83.19 C99.03,80.70 106.36,66.78 110.83,60.74 C115.48,54.46 127.81,42.60 134.40,38.07 C141.35,33.29 156.64,26.29 165.65,23.78 C172.50,21.86 175.98,21.58 193.00,21.58 C210.07,21.58 213.50,21.86 220.50,23.80 C228.80,26.10 242.97,32.42 248.21,36.15 L 251.23 38.30 L 257.86 34.75 C274.93,25.64 295.24,21.76 314.76,23.90 C321.13,24.60 329.30,26.08 332.92,27.20 C360.49,35.68 381.07,54.48 391.97,81.13 L 394.27 86.77 L 401.39 87.47 C410.98,88.41 417.12,91.23 422.44,97.14 C427.48,102.75 429.76,108.61 430.66,118.22 C431.29,124.99 431.30,125.01 435.90,127.84 C462.41,144.16 477.51,173.73 475.69,205.81 C474.96,218.73 472.99,226.86 468.01,237.62 C457.14,261.09 437.64,278.69 413.17,287.12 C400.42,291.51 392.63,291.99 334.61,292.00 L 279.72 292.00 L 280.29 321.25 C280.60,337.34 281.36,353.36 281.97,356.86 C285.18,375.25 296.41,383.71 322.00,387.01 C333.06,388.44 340.87,391.22 349.50,396.80 C358.72,402.76 363.23,404.00 375.61,404.00 C391.86,404.00 402.08,407.10 411.00,414.73 C418.42,421.09 418.34,430.39 410.81,434.97 C406.03,437.89 401.75,437.52 394.66,433.58 C391.27,431.69 386.81,429.84 384.75,429.46 L 381.00 428.78 L 381.00 432.81 C381.00,437.92 377.35,442.52 372.01,444.11 C368.68,445.11 367.60,444.98 363.77,443.13 C358.12,440.39 358.00,440.41 358.00,444.13 C358.00,446.43 357.05,448.16 354.43,450.63 C351.48,453.42 350.09,454.00 346.41,454.00 C342.57,454.00 341.33,453.42 337.44,449.83 C332.68,445.45 326.01,433.25 325.99,428.90 C325.95,422.40 323.60,420.35 315.12,419.42 L 310.50 418.91 L 312.98 420.70 C319.46,425.41 322.57,429.03 325.65,435.46 C328.73,441.89 329.00,443.21 329.00,452.07 C329.00,460.44 328.70,462.15 326.72,465.09 C321.54,472.77 312.08,473.05 306.60,465.68 C304.97,463.50 304.39,460.90 304.00,454.19 C303.61,447.50 303.15,445.45 301.98,445.23 C299.99,444.85 294.36,454.23 293.41,459.50 C292.96,462.02 291.49,464.70 289.44,466.75 C286.74,469.46 285.45,470.00 281.68,470.00 C270.08,470.00 265.36,456.47 272.32,443.16 C273.79,440.34 275.00,437.88 275.00,437.69 C275.00,437.50 271.60,435.62 267.45,433.51 C262.36,430.92 258.28,427.90 254.91,424.21 C252.17,421.21 249.82,418.92 249.71,419.14 C249.59,419.35 247.98,421.17 246.13,423.18 L 242.76 426.84 L 247.53 432.67 C256.41,443.54 258.51,452.86 253.43,458.91 C250.00,462.97 244.20,464.74 239.99,463.00 C236.76,461.66 232.69,457.02 231.61,453.44 C231.27,452.31 229.39,449.83 227.44,447.94 L 223.89 444.50 L 224.19 453.04 C224.52,462.25 223.41,465.38 218.68,468.47 ZM 143.00 217.88 C143.00,216.67 136.13,205.00 135.42,205.00 C135.33,205.00 135.45,205.37 135.73,205.99 C128.21,192.01 126.77,190.30 122.02,188.29 C110.88,183.58 106.84,168.05 114.58,159.70 C120.76,153.03 132.01,150.92 139.00,155.10 C146.63,159.68 148.74,164.47 147.64,174.81 L 147.04 180.50 L 154.47 192.00 C158.55,198.32 165.12,208.76 169.05,215.20 L 176.21 226.90 L 185.86 229.90 C211.03,237.73 225.63,242.13 227.00,242.31 C228.13,242.45 228.57,241.24 228.80,237.35 C229.08,232.43 228.69,231.52 220.05,217.08 C215.07,208.77 211.00,201.59 211.00,201.14 C211.00,199.11 206.60,196.99 194.50,193.19 C187.35,190.94 180.38,188.83 179.00,188.49 C170.50,186.41 167.03,175.81 172.92,169.92 C175.56,167.28 176.49,167.00 182.42,167.00 C190.19,167.00 190.39,166.53 185.58,159.39 C185.12,158.71 184.64,157.96 184.16,157.18 C184.88,158.30 185.72,159.58 186.66,160.98 C189.59,165.35 189.62,166.98 186.75,167.07 C184.60,167.14 184.59,167.18 186.50,168.00 C189.48,169.28 191.00,169.16 191.00,167.66 C191.00,166.28 183.66,154.30 181.71,152.50 C181.54,152.34 181.45,152.29 181.42,152.34 C181.10,151.71 180.84,151.16 180.65,150.70 C179.57,148.11 178.05,146.63 175.33,145.49 C164.11,140.80 159.99,128.91 166.05,118.65 C172.97,106.92 192.43,107.10 198.70,118.96 C201.13,123.56 201.70,130.03 200.06,134.35 C199.27,136.43 199.72,137.69 202.84,142.17 C204.89,145.10 213.22,158.19 221.37,171.25 C229.51,184.32 236.59,194.75 237.09,194.45 C237.61,194.12 238.00,178.74 238.00,158.56 C238.00,126.89 237.83,123.10 236.34,121.87 C233.86,119.82 231.04,112.97 231.04,109.00 C231.04,104.93 233.87,98.25 236.65,95.79 C242.61,90.49 253.56,89.44 260.06,93.54 C269.65,99.59 271.37,110.48 264.36,120.80 L 261.97 124.32 L 262.24 154.16 C262.40,173.00 262.87,184.09 263.50,184.25 C265.10,184.65 278.97,162.93 280.20,158.11 C280.81,155.69 282.64,152.20 284.27,150.35 C285.90,148.49 289.70,141.47 292.72,134.74 C297.80,123.41 298.12,122.28 296.95,119.50 C293.16,110.42 295.86,100.11 303.33,95.16 C308.96,91.44 318.75,91.37 324.20,95.02 C331.55,99.94 334.61,111.06 330.69,118.62 C329.22,121.48 324.50,126.14 320.70,128.50 C318.17,130.07 308.18,154.22 309.10,156.55 C309.52,157.62 309.89,159.44 309.93,160.58 C310.03,163.57 304.44,171.56 301.23,173.01 C299.01,174.02 295.94,179.37 284.69,201.87 L 270.88 229.50 L 270.94 237.82 C270.99,244.33 271.30,246.08 272.37,245.82 C273.12,245.65 283.07,236.42 294.49,225.32 L 315.26 205.13 L 313.66 195.82 C310.84,179.40 310.64,175.60 312.42,172.16 C315.57,166.06 323.17,164.30 329.10,168.28 C332.69,170.70 334.85,175.28 334.94,180.69 C334.97,182.45 335.35,184.10 335.77,184.36 C336.19,184.62 341.61,180.02 347.82,174.13 C356.09,166.29 358.93,162.98 358.46,161.77 C358.11,160.85 358.54,157.66 359.41,154.66 C362.29,144.74 371.22,139.65 381.89,141.85 C388.93,143.29 391.32,144.97 393.89,150.26 C399.66,162.19 393.05,176.00 380.80,177.62 C376.16,178.24 375.49,178.81 353.77,200.88 C335.34,219.60 331.88,223.55 333.70,223.81 C334.91,223.98 336.79,223.65 337.88,223.06 C338.97,222.48 341.47,222.00 343.43,222.00 C345.39,222.00 351.61,220.47 357.25,218.60 C362.89,216.74 369.38,214.71 371.67,214.09 C374.97,213.20 376.34,212.10 378.32,208.72 C385.63,196.25 405.01,196.45 411.54,209.07 C413.41,212.70 413.42,222.28 411.55,225.90 C407.63,233.48 398.03,238.11 390.59,236.01 C388.34,235.37 385.51,234.61 384.30,234.32 C383.07,234.02 377.07,235.46 370.80,237.55 C361.30,240.71 358.77,242.01 354.89,245.73 C349.44,250.96 344.27,252.23 339.18,249.59 C336.16,248.03 335.57,248.10 323.77,251.51 C317.02,253.45 309.52,255.60 307.11,256.27 C304.08,257.12 301.67,258.74 299.35,261.50 C288.03,274.96 283.94,280.33 284.28,281.35 C284.89,283.17 388.23,282.95 397.50,281.11 C412.07,278.21 421.01,274.45 432.50,266.39 C447.59,255.80 459.40,238.56 463.96,220.48 C467.56,206.17 466.45,186.67 461.25,173.31 C455.12,157.53 445.98,146.48 430.50,136.14 L 420.50 129.46 L 420.50 120.48 C420.50,112.80 420.15,110.88 418.07,107.26 C416.74,104.93 413.85,101.78 411.66,100.26 C408.06,97.77 406.77,97.49 398.41,97.35 C393.31,97.27 388.72,96.95 388.21,96.63 C387.70,96.31 386.04,92.55 384.54,88.28 C377.32,67.82 362.93,51.58 343.17,41.58 C318.10,28.90 283.95,30.55 257.83,45.71 C254.71,47.52 251.61,49.00 250.94,49.00 C250.26,49.00 247.41,47.48 244.60,45.63 C216.16,26.83 180.99,24.95 150.00,40.56 C133.04,49.10 118.76,63.61 111.00,80.19 C106.88,88.99 103.00,104.80 102.99,112.88 C102.96,123.04 99.27,128.35 94.93,124.46 C92.88,122.62 92.78,121.90 93.33,112.75 C94.00,101.61 93.70,101.26 87.28,105.91 C81.74,109.93 79.00,115.95 79.00,124.12 C79.00,127.83 78.46,131.28 77.75,132.15 C77.06,133.00 73.35,135.78 69.50,138.33 C49.98,151.27 38.70,168.84 35.04,192.00 C32.20,209.97 36.17,230.45 45.40,245.50 C53.68,259.01 63.83,267.82 79.31,274.96 C88.80,279.34 94.75,281.00 104.50,282.00 C108.35,282.39 136.02,282.67 166.00,282.61 L 220.50 282.50 L 220.50 267.80 L 215.50 265.85 C212.75,264.78 203.14,261.41 194.14,258.35 C178.53,253.05 177.59,252.85 173.44,254.02 C167.77,255.60 165.09,254.84 159.59,250.07 C154.97,246.08 152.99,245.32 133.50,240.02 C128.00,238.53 119.77,236.26 115.21,234.99 C107.40,232.80 106.73,232.76 103.56,234.27 C90.23,240.63 77.73,233.73 75.49,218.76 C73.60,206.16 87.51,195.79 100.63,200.01 C102.95,200.76 106.34,203.22 109.09,206.16 C113.27,210.63 114.45,211.26 122.59,213.41 C132.73,216.08 137.67,217.05 139.50,216.68 C138.79,216.97 137.55,216.90 135.73,216.58 L 132.50 216.02 L 136.00 217.43 C140.33,219.18 143.00,219.35 143.00,217.88 ZM 210.21 461.24 C211.71,462.55 212.65,462.72 214.09,461.95 C215.78,461.05 216.00,459.74 216.00,450.42 C216.00,441.82 216.37,439.20 218.05,435.91 C219.17,433.71 220.73,431.66 221.52,431.36 C223.47,430.61 236.44,444.20 239.60,450.31 C241.76,454.47 242.46,455.08 244.80,454.81 C250.59,454.14 248.20,446.07 239.06,435.39 C236.14,431.98 234.01,428.52 234.01,427.16 C234.00,425.80 235.90,422.66 238.55,419.66 C241.05,416.82 244.30,411.89 245.78,408.71 C248.06,403.77 248.81,402.95 250.85,403.21 C252.71,403.44 253.66,404.63 255.15,408.64 C258.10,416.58 263.70,422.18 273.62,427.12 C278.35,429.47 282.91,432.46 283.76,433.75 C285.21,435.97 285.09,436.53 281.62,443.17 C277.15,451.72 276.02,457.88 278.46,460.32 C281.93,463.78 283.91,462.23 285.86,454.52 C286.55,451.78 288.15,448.18 289.41,446.52 C292.66,442.24 295.00,437.44 295.00,435.05 C295.00,432.06 298.68,432.41 304.25,435.94 C310.24,439.74 312.21,443.68 312.79,453.00 C313.28,460.99 314.14,463.00 317.09,463.00 C319.78,463.00 321.00,459.92 321.00,453.10 C321.00,438.04 314.39,429.44 297.50,422.53 C283.90,416.97 276.32,411.61 273.95,405.87 C273.02,403.62 273.03,402.67 274.00,401.50 C275.72,399.42 277.48,399.61 282.32,402.41 C288.19,405.80 298.54,408.77 308.77,410.00 C326.94,412.18 331.95,415.31 333.97,425.74 C335.57,433.95 337.65,438.25 342.13,442.63 C345.34,445.76 346.37,446.26 347.78,445.37 C350.60,443.59 350.33,441.34 346.57,435.25 C343.56,430.38 343.00,428.55 343.00,423.73 C343.00,417.00 344.17,416.46 348.56,421.11 C352.27,425.03 367.47,437.00 368.74,437.00 C369.26,437.00 370.48,436.13 371.44,435.07 C373.64,432.63 372.83,429.92 369.25,427.80 C367.74,426.91 365.38,424.97 364.00,423.49 L 361.50 420.81 L 375.50 421.18 C390.02,421.56 393.03,422.32 401.26,427.68 C404.60,429.85 407.34,428.65 407.80,424.79 C408.05,422.74 407.22,421.71 403.30,419.21 C395.07,413.95 390.71,412.87 375.50,412.34 C367.80,412.07 359.92,411.38 358.00,410.80 C356.08,410.22 350.81,407.54 346.30,404.84 C335.95,398.64 330.00,396.61 317.65,395.06 C295.83,392.33 283.27,384.61 276.51,369.78 C272.56,361.10 271.78,353.41 271.27,317.68 L 270.78 283.86 L 277.11 275.68 C280.59,271.18 286.56,263.80 290.38,259.27 C296.51,252.02 297.94,250.88 302.42,249.63 C305.21,248.86 313.10,246.67 319.94,244.77 L 332.38 241.33 L 332.46 236.67 C332.54,232.94 332.25,232.10 331.03,232.45 C323.46,234.65 316.91,235.90 315.59,235.40 C314.68,235.05 314.00,233.63 314.00,232.07 C314.00,229.83 318.75,224.71 341.00,203.00 C355.85,188.51 368.00,176.24 368.00,175.74 C368.00,174.55 363.84,171.08 362.37,171.03 C361.74,171.01 354.87,177.13 347.10,184.61 C335.75,195.55 332.70,198.00 331.58,197.07 C330.81,196.42 329.67,192.08 329.00,187.21 C327.42,175.70 326.37,173.00 323.45,173.00 C322.18,173.00 320.46,173.68 319.64,174.51 C319.39,174.75 319.19,174.95 319.02,175.18 C318.06,176.52 318.43,178.82 321.05,195.05 L 321.11 195.46 L 323.04 207.41 L 315.77 214.79 C311.77,218.85 299.17,231.16 287.77,242.13 C286.47,243.40 285.23,244.59 284.05,245.73 C272.45,256.93 267.22,261.98 264.88,260.88 C262.95,259.98 262.97,254.93 262.99,245.75 C263.00,244.62 263.00,243.42 263.00,242.16 C263.00,232.39 263.42,223.97 263.93,223.45 C264.88,222.47 266.09,220.20 281.93,189.71 L 291.17 171.92 L 288.36 169.71 C286.81,168.50 285.16,167.50 284.69,167.50 C283.98,167.50 271.74,186.82 265.10,198.40 C264.19,199.99 262.54,201.90 261.43,202.63 C259.72,203.77 259.07,203.74 257.20,202.43 L 255.00 200.89 L 255.00 127.00 L 245.00 127.00 L 245.00 169.26 C245.00,210.83 244.97,211.54 242.94,212.80 C241.13,213.94 240.57,213.75 238.19,211.20 C236.71,209.61 232.59,203.18 229.04,196.90 C225.48,190.63 220.25,182.12 217.42,178.00 C214.59,173.88 208.54,164.43 203.99,157.00 C199.43,149.57 195.39,143.14 195.00,142.70 C193.95,141.50 186.88,145.98 187.66,147.35 C188.03,147.98 192.09,154.62 196.69,162.10 C205.03,175.68 206.07,179.00 201.94,179.00 C200.92,179.00 199.06,178.60 197.80,178.11 C196.53,177.62 192.20,176.18 188.17,174.91 C179.86,172.30 177.50,172.88 177.50,177.53 C177.50,180.15 178.00,180.49 185.00,182.66 C189.12,183.94 193.85,185.41 195.50,185.92 C197.15,186.44 201.67,187.78 205.54,188.91 L 212.57 190.96 L 219.69 201.73 C223.61,207.65 229.33,216.73 232.41,221.90 L 238.00 231.30 L 238.00 239.82 C238.00,246.35 237.61,248.77 236.35,250.17 C235.43,251.18 234.23,252.00 233.66,252.00 C232.77,252.00 208.61,244.65 190.58,238.89 C183.02,236.47 183.00,236.48 183.00,239.80 C183.00,241.34 182.50,243.10 181.89,243.71 C180.33,245.27 181.36,245.71 206.00,254.04 C217.82,258.03 228.05,262.02 228.72,262.90 C230.56,265.31 230.44,342.37 228.58,354.50 C226.24,369.81 221.98,377.71 212.15,385.01 C199.26,394.59 189.96,397.98 174.00,398.93 C160.11,399.76 158.53,400.31 148.00,408.00 C144.43,410.62 140.38,413.13 139.00,413.59 C137.62,414.05 129.07,414.44 120.00,414.46 L 103.50 414.50 L 96.50 418.00 C90.25,421.12 89.50,421.81 89.50,424.39 C89.50,428.27 92.20,429.99 95.25,428.05 C103.72,422.67 104.53,422.51 123.75,422.50 L 142.00 422.50 L 142.00 424.85 C142.00,426.41 140.01,429.10 136.00,432.92 C129.60,439.03 128.51,442.13 132.09,444.05 C134.38,445.28 134.75,445.03 144.23,436.08 C147.81,432.70 149.47,430.09 151.04,425.39 C154.63,414.58 161.35,410.06 173.87,410.02 C181.04,410.00 181.22,410.06 180.58,412.25 C180.22,413.49 179.69,416.08 179.40,418.00 C179.11,419.92 178.66,422.55 178.39,423.84 C178.13,425.12 174.11,430.19 169.46,435.10 C162.20,442.75 161.00,444.52 161.00,447.48 C161.00,452.28 164.17,454.04 166.97,450.79 C168.05,449.53 172.50,444.67 176.84,440.00 C185.76,430.41 186.24,429.64 188.02,422.00 C190.23,412.53 190.88,412.00 205.00,407.96 C209.12,406.78 214.94,404.51 217.93,402.91 C220.91,401.31 224.63,400.00 226.18,400.00 C230.95,400.00 229.75,403.65 222.40,411.50 C207.39,427.54 203.97,436.95 207.12,453.58 C207.79,457.12 209.03,460.20 210.21,461.24 ZM 145.00 235.86 C155.80,239.20 157.33,239.27 157.84,236.49 C158.33,233.78 161.59,230.41 165.15,228.94 C166.81,228.25 167.89,227.17 167.62,226.46 C166.53,223.62 142.72,186.00 142.01,186.00 C141.59,186.00 139.59,186.69 137.58,187.53 L 133.91 189.06 L 135.86 191.81 C140.58,198.43 157.00,225.59 157.00,226.76 C157.00,228.77 154.33,229.34 150.23,228.21 C148.18,227.65 143.12,226.25 139.00,225.09 C134.88,223.94 128.12,222.10 124.00,220.99 C119.88,219.88 115.74,218.73 114.81,218.44 C113.53,218.03 112.87,218.81 112.08,221.67 C111.51,223.74 111.37,225.76 111.77,226.14 C112.17,226.53 117.68,228.22 124.00,229.89 C130.32,231.56 139.77,234.25 145.00,235.86 ZM 177.26 137.51 C182.64,139.85 185.57,139.36 189.47,135.47 C191.95,132.98 193.00,131.04 193.00,128.92 C193.00,119.70 183.73,115.01 175.93,120.27 C169.27,124.75 170.01,134.36 177.26,137.51 ZM 124.39 180.42 C128.95,182.67 132.17,182.34 135.83,179.25 C144.00,172.34 139.43,161.00 128.47,161.00 C118.20,161.00 115.08,175.83 124.39,180.42 ZM 86.82 225.25 C88.90,227.48 90.24,228.00 94.00,228.00 C99.86,228.00 103.88,224.31 104.71,218.16 C105.18,214.60 104.88,213.72 102.20,211.05 C99.68,208.53 98.35,208.00 94.51,208.00 C88.57,208.00 86.18,209.32 84.40,213.59 C82.63,217.81 83.42,221.60 86.82,225.25 ZM 308.91 119.72 C312.89,122.40 314.12,122.51 317.99,120.51 C322.10,118.38 324.00,115.19 324.00,110.41 C324.00,104.33 320.39,101.00 313.79,101.00 C309.66,101.00 308.36,101.48 305.92,103.92 C301.14,108.70 302.40,115.33 308.91,119.72 ZM 369.92 167.08 C374.24,171.40 379.99,171.21 384.60,166.60 C387.03,164.17 388.00,162.30 388.00,160.05 C388.00,156.27 385.69,151.48 383.46,150.62 C380.71,149.57 372.59,150.00 370.91,151.28 C366.09,154.99 365.60,162.75 369.92,167.08 ZM 389.57 227.05 C394.01,229.98 396.73,229.50 401.25,224.99 C404.97,221.26 405.22,220.67 404.69,216.74 C403.92,210.96 400.42,208.00 394.35,208.00 C390.55,208.00 389.32,208.51 386.90,211.11 C382.21,216.13 383.35,222.96 389.57,227.05 ZM 244.30 118.10 C248.43,120.68 253.34,120.01 257.16,116.35 C259.50,114.10 260.00,112.79 260.00,108.86 C260.00,104.64 259.62,103.81 256.66,101.55 C251.07,97.29 243.63,98.95 240.41,105.18 C238.14,109.56 239.88,115.33 244.30,118.10 ZM 298.25 149.59 C300.04,150.14 301.81,150.34 302.20,150.04 C302.96,149.45 312.10,128.74 311.73,128.44 C310.67,127.58 304.74,124.93 304.48,125.19 C303.54,126.12 295.00,145.93 295.00,147.16 C295.00,147.95 296.46,149.04 298.25,149.59 ZM 354.75 231.91 C355.71,233.60 356.52,234.99 356.55,234.99 C356.93,235.04 377.19,228.00 377.83,227.60 C378.86,226.97 376.92,220.00 375.71,220.00 C374.73,220.00 362.99,223.64 357.25,225.73 C354.91,226.58 353.00,227.62 353.00,228.05 C353.00,228.49 353.79,230.22 354.75,231.91 ZM 166.50 245.81 C171.17,248.45 176.00,245.41 176.00,239.83 C176.00,235.73 173.47,233.00 169.67,233.00 C165.67,233.00 163.00,235.57 163.02,239.40 C163.03,242.97 163.71,244.23 166.50,245.81 ZM 290.65 164.17 C294.39,168.29 301.00,165.23 301.00,159.38 C301.00,155.75 298.93,154.00 294.64,154.00 C289.56,154.00 287.11,160.26 290.65,164.17 ZM 342.50 241.81 C343.60,242.43 344.86,242.95 345.30,242.97 C346.89,243.03 351.00,238.04 351.00,236.05 C351.00,233.53 347.63,230.00 345.22,230.00 C342.13,230.00 339.00,232.92 339.02,235.81 C339.03,238.98 339.78,240.26 342.50,241.81 ZM 157.00 434.57 C157.00,436.03 169.81,422.85 170.33,420.86 C170.93,418.55 168.14,418.36 164.10,420.45 C162.09,421.49 160.71,423.54 159.15,427.80 C157.97,431.05 157.00,434.10 157.00,434.57 ZM 138.12 210.55 C139.65,213.28 140.36,214.98 140.15,215.91 C140.06,214.98 139.32,213.03 138.12,210.55 Z" fill="rgb(2,37,64)"/>
<path d="M 177.26 137.51 C170.01,134.36 169.27,124.75 175.93,120.27 C183.73,115.01 193.00,119.70 193.00,128.92 C193.00,131.04 191.95,132.98 189.47,135.47 C185.57,139.36 182.64,139.85 177.26,137.51 ZM 124.39 180.42 C115.08,175.83 118.20,161.00 128.47,161.00 C139.43,161.00 144.00,172.34 135.83,179.25 C132.17,182.34 128.95,182.67 124.39,180.42 ZM 86.82 225.25 C83.42,221.60 82.63,217.81 84.40,213.59 C86.18,209.32 88.57,208.00 94.51,208.00 C98.35,208.00 99.68,208.53 102.20,211.05 C104.88,213.72 105.18,214.60 104.71,218.16 C103.88,224.31 99.86,228.00 94.00,228.00 C90.24,228.00 88.90,227.48 86.82,225.25 ZM 308.91 119.72 C302.40,115.33 301.14,108.70 305.92,103.92 C308.36,101.48 309.66,101.00 313.79,101.00 C320.39,101.00 324.00,104.33 324.00,110.41 C324.00,115.19 322.10,118.38 317.99,120.51 C314.12,122.51 312.89,122.40 308.91,119.72 ZM 369.92 167.08 C365.60,162.75 366.09,154.99 370.91,151.28 C372.59,150.00 380.71,149.57 383.46,150.62 C385.69,151.48 388.00,156.27 388.00,160.05 C388.00,162.30 387.03,164.17 384.60,166.60 C379.99,171.21 374.24,171.40 369.92,167.08 ZM 389.57 227.05 C383.35,222.96 382.21,216.13 386.90,211.11 C389.32,208.51 390.55,208.00 394.35,208.00 C400.42,208.00 403.92,210.96 404.69,216.74 C405.22,220.67 404.97,221.26 401.25,224.99 C396.73,229.50 394.01,229.98 389.57,227.05 ZM 244.30 118.10 C239.88,115.33 238.14,109.56 240.41,105.18 C243.63,98.95 251.07,97.29 256.66,101.55 C259.62,103.81 260.00,104.64 260.00,108.86 C260.00,112.79 259.50,114.10 257.16,116.35 C253.34,120.01 248.43,120.68 244.30,118.10 ZM 166.50 245.81 C163.71,244.23 163.03,242.97 163.02,239.40 C163.00,235.57 165.67,233.00 169.67,233.00 C173.47,233.00 176.00,235.73 176.00,239.83 C176.00,245.41 171.17,248.45 166.50,245.81 ZM 290.65 164.17 C287.11,160.26 289.56,154.00 294.64,154.00 C298.93,154.00 301.00,155.75 301.00,159.38 C301.00,165.23 294.39,168.29 290.65,164.17 ZM 342.50 241.81 C339.78,240.26 339.03,238.98 339.02,235.81 C339.00,232.92 342.13,230.00 345.22,230.00 C347.63,230.00 351.00,233.53 351.00,236.05 C351.00,238.04 346.89,243.03 345.30,242.97 C344.86,242.95 343.60,242.43 342.50,241.81 Z" fill="rgb(22,183,241)"/>
<path d="M 122.02 188.29 C126.77,190.30 128.21,192.01 135.73,205.99 C136.17,206.97 137.01,208.59 138.04,210.41 C138.06,210.46 138.09,210.51 138.12,210.55 C139.32,213.03 140.06,214.98 140.15,215.91 C140.07,216.27 139.85,216.52 139.50,216.68 C137.67,217.05 132.73,216.08 122.59,213.41 C114.45,211.26 113.27,210.63 109.09,206.16 C106.34,203.22 102.95,200.76 100.63,200.01 C87.51,195.79 73.60,206.16 75.49,218.76 C77.73,233.73 90.23,240.63 103.56,234.27 C106.73,232.76 107.40,232.80 115.21,234.99 C119.77,236.26 128.00,238.53 133.50,240.02 C152.99,245.32 154.97,246.08 159.59,250.07 C165.09,254.84 167.77,255.60 173.44,254.02 C177.59,252.85 178.53,253.05 194.14,258.35 C203.14,261.41 212.75,264.78 215.50,265.85 L 220.50 267.80 L 220.50 282.50 L 166.00 282.61 C136.02,282.67 108.35,282.39 104.50,282.00 C94.75,281.00 88.80,279.34 79.31,274.96 C63.83,267.82 53.68,259.01 45.40,245.50 C36.17,230.45 32.20,209.97 35.04,192.00 C38.70,168.84 49.98,151.27 69.50,138.33 C73.35,135.78 77.06,133.00 77.75,132.15 C78.46,131.28 79.00,127.83 79.00,124.12 C79.00,115.95 81.74,109.93 87.28,105.91 C93.70,101.26 94.00,101.61 93.33,112.75 C92.78,121.90 92.88,122.62 94.93,124.46 C99.27,128.35 102.96,123.04 102.99,112.88 C103.00,104.80 106.88,88.99 111.00,80.19 C118.76,63.61 133.04,49.10 150.00,40.56 C180.99,24.95 216.16,26.83 244.60,45.63 C247.41,47.48 250.26,49.00 250.94,49.00 C251.61,49.00 254.71,47.52 257.83,45.71 C283.95,30.55 318.10,28.90 343.17,41.58 C362.93,51.58 377.32,67.82 384.54,88.28 C386.04,92.55 387.70,96.31 388.21,96.63 C388.72,96.95 393.31,97.27 398.41,97.35 C406.77,97.49 408.06,97.77 411.66,100.26 C413.85,101.78 416.74,104.93 418.07,107.26 C420.15,110.88 420.50,112.80 420.50,120.48 L 420.50 129.46 L 430.50 136.14 C445.98,146.48 455.12,157.53 461.25,173.31 C466.45,186.67 467.56,206.17 463.96,220.48 C459.40,238.56 447.59,255.80 432.50,266.39 C421.01,274.45 412.07,278.21 397.50,281.11 C388.23,282.95 284.89,283.17 284.28,281.35 C283.94,280.33 288.03,274.96 299.35,261.50 C301.67,258.74 304.08,257.12 307.11,256.27 C309.52,255.60 317.02,253.45 323.77,251.51 C335.57,248.10 336.16,248.03 339.18,249.59 C344.27,252.23 349.44,250.96 354.89,245.73 C358.77,242.01 361.30,240.71 370.80,237.55 C377.07,235.46 383.07,234.02 384.30,234.32 C385.51,234.61 388.34,235.37 390.59,236.01 C398.03,238.11 407.63,233.48 411.55,225.90 C413.42,222.28 413.41,212.70 411.54,209.07 C405.01,196.45 385.63,196.25 378.32,208.72 C376.34,212.10 374.97,213.20 371.67,214.09 C369.38,214.71 362.89,216.74 357.25,218.60 C351.61,220.47 345.39,222.00 343.43,222.00 C341.47,222.00 338.97,222.48 337.88,223.06 C336.79,223.65 334.91,223.98 333.70,223.81 C331.88,223.55 335.34,219.60 353.77,200.88 C375.49,178.81 376.16,178.24 380.80,177.62 C393.05,176.00 399.66,162.19 393.89,150.26 C391.32,144.97 388.93,143.29 381.89,141.85 C371.22,139.65 362.29,144.74 359.41,154.66 C358.54,157.66 358.11,160.85 358.46,161.77 C358.93,162.98 356.09,166.29 347.82,174.13 C341.61,180.02 336.19,184.62 335.77,184.36 C335.35,184.10 334.97,182.45 334.94,180.69 C334.85,175.28 332.69,170.70 329.10,168.28 C323.17,164.30 315.57,166.06 312.42,172.16 C310.64,175.60 310.84,179.40 313.66,195.82 L 315.26 205.13 L 294.49 225.32 C283.07,236.42 273.12,245.65 272.37,245.82 C271.30,246.08 270.99,244.33 270.94,237.82 L 270.88 229.50 L 284.69 201.87 C295.94,179.37 299.01,174.02 301.23,173.01 C304.44,171.56 310.03,163.57 309.93,160.58 C309.89,159.44 309.52,157.62 309.10,156.55 C308.18,154.22 318.17,130.07 320.70,128.50 C324.50,126.14 329.22,121.48 330.69,118.62 C334.61,111.06 331.55,99.94 324.20,95.02 C318.75,91.37 308.96,91.44 303.33,95.16 C295.86,100.11 293.16,110.42 296.95,119.50 C298.12,122.28 297.80,123.41 292.72,134.74 C289.70,141.47 285.90,148.49 284.27,150.35 C282.64,152.20 280.81,155.69 280.20,158.11 C278.97,162.93 265.10,184.65 263.50,184.25 C262.87,184.09 262.40,173.00 262.24,154.16 L 261.97 124.32 L 264.36 120.80 C271.37,110.48 269.65,99.59 260.06,93.54 C253.56,89.44 242.61,90.49 236.65,95.79 C233.87,98.25 231.04,104.93 231.04,109.00 C231.04,112.97 233.86,119.82 236.34,121.87 C237.83,123.10 238.00,126.89 238.00,158.56 C238.00,178.74 237.61,194.12 237.09,194.45 C236.59,194.75 229.51,184.32 221.37,171.25 C213.22,158.19 204.89,145.10 202.84,142.17 C199.72,137.69 199.27,136.43 200.06,134.35 C201.70,130.03 201.13,123.56 198.70,118.96 C192.43,107.10 172.97,106.92 166.05,118.65 C159.99,128.91 164.11,140.80 175.33,145.49 C178.05,146.63 179.57,148.11 180.65,150.70 C180.84,151.16 181.10,151.71 181.42,152.34 C181.30,152.52 182.33,154.32 184.16,157.18 C184.64,157.96 185.12,158.71 185.58,159.39 C190.39,166.53 190.19,167.00 182.42,167.00 C176.49,167.00 175.56,167.28 172.92,169.92 C167.03,175.81 170.50,186.41 179.00,188.49 C180.38,188.83 187.35,190.94 194.50,193.19 C206.60,196.99 211.00,199.11 211.00,201.14 C211.00,201.59 215.07,208.77 220.05,217.08 C228.69,231.52 229.08,232.43 228.80,237.35 C228.57,241.24 228.13,242.45 227.00,242.31 C225.63,242.13 211.03,237.73 185.86,229.90 L 176.21 226.90 L 169.05 215.20 C165.12,208.76 158.55,198.32 154.47,192.00 L 147.04 180.50 L 147.64 174.81 C148.74,164.47 146.63,159.68 139.00,155.10 C132.01,150.92 120.76,153.03 114.58,159.70 C106.84,168.05 110.88,183.58 122.02,188.29 Z" fill="rgb(20,88,121)"/>
<path d="M 0.00 250.00 L 0.00 0.00 L 250.00 0.00 L 500.00 0.00 L 500.00 250.00 L 500.00 500.00 L 250.00 500.00 L 0.00 500.00 L 0.00 250.00 ZM 218.68 468.47 C223.41,465.38 224.52,462.25 224.19,453.04 L 223.89 444.50 L 227.44 447.94 C229.39,449.83 231.27,452.31 231.61,453.44 C232.69,457.02 236.76,461.66 239.99,463.00 C244.20,464.74 250.00,462.97 253.43,458.91 C258.51,452.86 256.41,443.54 247.53,432.67 L 242.76 426.84 L 246.13 423.18 C247.98,421.17 249.59,419.35 249.71,419.14 C249.82,418.92 252.17,421.21 254.91,424.21 C258.28,427.90 262.36,430.92 267.45,433.51 C271.60,435.62 275.00,437.50 275.00,437.69 C275.00,437.88 273.79,440.34 272.32,443.16 C265.36,456.47 270.08,470.00 281.68,470.00 C285.45,470.00 286.74,469.46 289.44,466.75 C291.49,464.70 292.96,462.02 293.41,459.50 C294.36,454.23 299.99,444.85 301.98,445.23 C303.15,445.45 303.61,447.50 304.00,454.19 C304.39,460.90 304.97,463.50 306.60,465.68 C312.08,473.05 321.54,472.77 326.72,465.09 C328.70,462.15 329.00,460.44 329.00,452.07 C329.00,443.21 328.73,441.89 325.65,435.46 C322.57,429.03 319.46,425.41 312.98,420.70 L 310.50 418.91 L 315.12 419.42 C323.60,420.35 325.95,422.40 325.99,428.90 C326.01,433.25 332.68,445.45 337.44,449.83 C341.33,453.42 342.57,454.00 346.41,454.00 C350.09,454.00 351.48,453.42 354.43,450.63 C357.05,448.16 358.00,446.43 358.00,444.13 C358.00,440.41 358.12,440.39 363.77,443.13 C367.60,444.98 368.68,445.11 372.01,444.11 C377.35,442.52 381.00,437.92 381.00,432.81 L 381.00 428.78 L 384.75 429.46 C386.81,429.84 391.27,431.69 394.66,433.58 C401.75,437.52 406.03,437.89 410.81,434.97 C418.34,430.39 418.42,421.09 411.00,414.73 C402.08,407.10 391.86,404.00 375.61,404.00 C363.23,404.00 358.72,402.76 349.50,396.80 C340.87,391.22 333.06,388.44 322.00,387.01 C296.41,383.71 285.18,375.25 281.97,356.86 C281.36,353.36 280.60,337.34 280.29,321.25 L 279.72 292.00 L 334.61 292.00 C392.63,291.99 400.42,291.51 413.17,287.12 C437.64,278.69 457.14,261.09 468.01,237.62 C472.99,226.86 474.96,218.73 475.69,205.81 C477.51,173.73 462.41,144.16 435.90,127.84 C431.30,125.01 431.29,124.99 430.66,118.22 C429.76,108.61 427.48,102.75 422.44,97.14 C417.12,91.23 410.98,88.41 401.39,87.47 L 394.27 86.77 L 391.97 81.13 C381.07,54.48 360.49,35.68 332.92,27.20 C329.30,26.08 321.13,24.60 314.76,23.90 C295.24,21.76 274.93,25.64 257.86,34.75 L 251.23 38.30 L 248.21 36.15 C242.97,32.42 228.80,26.10 220.50,23.80 C213.50,21.86 210.07,21.58 193.00,21.58 C175.98,21.58 172.50,21.86 165.65,23.78 C156.64,26.29 141.35,33.29 134.40,38.07 C127.81,42.60 115.48,54.46 110.83,60.74 C106.36,66.78 99.03,80.70 99.01,83.19 C99.01,84.12 98.55,85.16 98.00,85.50 C97.45,85.84 97.00,87.15 97.00,88.41 C97.00,90.29 95.89,91.13 90.84,93.10 C83.70,95.88 74.86,103.40 71.90,109.19 C70.82,111.32 69.41,116.32 68.78,120.29 L 67.63 127.52 L 62.24 131.01 C59.27,132.93 52.85,138.69 47.97,143.81 C40.42,151.74 38.28,154.79 33.61,164.31 C26.33,179.15 24.47,187.56 24.61,205.00 C24.74,221.51 26.75,229.99 34.00,244.70 C38.02,252.85 40.67,256.63 47.22,263.55 C61.25,278.37 73.04,284.96 95.50,290.55 C97.15,290.96 125.95,291.56 159.50,291.90 L 220.50 292.50 L 220.39 322.00 C220.30,345.86 219.95,352.83 218.60,358.48 C215.68,370.61 210.21,377.42 198.20,383.81 C188.79,388.82 184.30,389.97 174.00,390.00 C160.16,390.03 155.20,391.74 143.33,400.59 L 136.16 405.93 L 120.33 405.81 C106.19,405.71 103.88,405.94 98.74,407.92 C85.20,413.16 80.01,417.90 80.00,425.02 C80.00,429.52 84.68,435.41 89.52,437.01 C92.72,438.06 93.65,437.85 100.27,434.58 C106.91,431.30 108.25,431.00 116.26,431.00 C121.07,431.00 125.00,431.21 125.00,431.48 C125.00,431.74 124.10,433.43 123.00,435.23 C120.47,439.38 120.48,442.63 123.03,446.81 C125.44,450.77 131.08,453.40 135.42,452.58 C137.12,452.26 141.74,449.54 145.68,446.54 L 152.85 441.08 L 152.30 446.40 C151.78,451.45 151.93,451.92 155.43,455.79 C157.45,458.03 160.43,460.16 162.05,460.51 C166.51,461.49 171.67,459.31 174.73,455.17 C176.22,453.15 180.74,447.99 184.77,443.70 C191.68,436.36 196.00,429.17 196.00,425.00 C196.00,421.82 197.15,419.97 200.07,418.46 C205.66,415.57 206.01,416.55 202.14,424.25 C198.56,431.39 198.50,431.69 198.50,443.50 C198.50,456.06 199.97,463.76 202.87,466.38 C208.04,471.06 213.61,471.80 218.68,468.47 ZM 210.21 461.24 C209.03,460.20 207.79,457.12 207.12,453.58 C203.97,436.95 207.39,427.54 222.40,411.50 C229.75,403.65 230.95,400.00 226.18,400.00 C224.63,400.00 220.91,401.31 217.93,402.91 C214.94,404.51 209.12,406.78 205.00,407.96 C190.88,412.00 190.23,412.53 188.02,422.00 C186.24,429.64 185.76,430.41 176.84,440.00 C172.50,444.67 168.05,449.53 166.97,450.79 C164.17,454.04 161.00,452.28 161.00,447.48 C161.00,444.52 162.20,442.75 169.46,435.10 C174.11,430.19 178.13,425.12 178.39,423.84 C178.66,422.55 179.11,419.92 179.40,418.00 C179.69,416.08 180.22,413.49 180.58,412.25 C181.22,410.06 181.04,410.00 173.87,410.02 C161.35,410.06 154.63,414.58 151.04,425.39 C149.47,430.09 147.81,432.70 144.23,436.08 C134.75,445.03 134.38,445.28 132.09,444.05 C128.51,442.13 129.60,439.03 136.00,432.92 C140.01,429.10 142.00,426.41 142.00,424.85 L 142.00 422.50 L 123.75 422.50 C104.53,422.51 103.72,422.67 95.25,428.05 C92.20,429.99 89.50,428.27 89.50,424.39 C89.50,421.81 90.25,421.12 96.50,418.00 L 103.50 414.50 L 120.00 414.46 C129.07,414.44 137.62,414.05 139.00,413.59 C140.38,413.13 144.43,410.62 148.00,408.00 C158.53,400.31 160.11,399.76 174.00,398.93 C189.96,397.98 199.26,394.59 212.15,385.01 C221.98,377.71 226.24,369.81 228.58,354.50 C230.44,342.37 230.56,265.31 228.72,262.90 C228.05,262.02 217.82,258.03 206.00,254.04 C181.36,245.71 180.33,245.27 181.89,243.71 C182.50,243.10 183.00,241.34 183.00,239.80 C183.00,236.48 183.02,236.47 190.58,238.89 C208.61,244.65 232.77,252.00 233.66,252.00 C234.23,252.00 235.43,251.18 236.35,250.17 C237.61,248.77 238.00,246.35 238.00,239.82 L 238.00 231.30 L 232.41 221.90 C229.33,216.73 223.61,207.65 219.69,201.73 L 212.57 190.96 L 205.54 188.91 C201.67,187.78 197.15,186.44 195.50,185.92 C193.85,185.41 189.12,183.94 185.00,182.66 C178.00,180.49 177.50,180.15 177.50,177.53 C177.50,172.88 179.86,172.30 188.17,174.91 C192.20,176.18 196.53,177.62 197.80,178.11 C199.06,178.60 200.92,179.00 201.94,179.00 C206.07,179.00 205.03,175.68 196.69,162.10 C192.09,154.62 188.03,147.98 187.66,147.35 C186.88,145.98 193.95,141.50 195.00,142.70 C195.39,143.14 199.43,149.57 203.99,157.00 C208.54,164.43 214.59,173.88 217.42,178.00 C220.25,182.12 225.48,190.63 229.04,196.90 C232.59,203.18 236.71,209.61 238.19,211.20 C240.57,213.75 241.13,213.94 242.94,212.80 C244.97,211.54 245.00,210.83 245.00,169.26 L 245.00 127.00 L 250.00 127.00 L 255.00 127.00 L 255.00 163.94 L 255.00 200.89 L 257.20 202.43 C259.07,203.74 259.72,203.77 261.43,202.63 C262.54,201.90 264.19,199.99 265.10,198.40 C271.74,186.82 283.98,167.50 284.69,167.50 C285.16,167.50 286.81,168.50 288.36,169.71 L 291.17 171.92 L 281.93 189.71 C266.09,220.20 264.88,222.47 263.93,223.45 C263.42,223.97 263.00,232.39 263.00,242.16 C263.00,267.32 261.63,267.32 287.77,242.13 C299.17,231.16 311.77,218.85 315.77,214.79 L 323.04 207.41 L 321.11 195.46 C317.98,176.01 317.99,176.15 319.64,174.51 C320.46,173.68 322.18,173.00 323.45,173.00 C326.37,173.00 327.42,175.70 329.00,187.21 C329.67,192.08 330.81,196.42 331.58,197.07 C332.70,198.00 335.75,195.55 347.10,184.61 C354.87,177.13 361.74,171.01 362.37,171.03 C363.84,171.08 368.00,174.55 368.00,175.74 C368.00,176.24 355.85,188.51 341.00,203.00 C318.75,224.71 314.00,229.83 314.00,232.07 C314.00,233.63 314.68,235.05 315.59,235.40 C316.91,235.90 323.46,234.65 331.03,232.45 C332.25,232.10 332.54,232.94 332.46,236.67 L 332.38 241.33 L 319.94 244.77 C313.10,246.67 305.21,248.86 302.42,249.63 C297.94,250.88 296.51,252.02 290.38,259.27 C286.56,263.80 280.59,271.18 277.11,275.68 L 270.78 283.86 L 271.27 317.68 C271.78,353.41 272.56,361.10 276.51,369.78 C283.27,384.61 295.83,392.33 317.65,395.06 C330.00,396.61 335.95,398.64 346.30,404.84 C350.81,407.54 356.08,410.22 358.00,410.80 C359.92,411.38 367.80,412.07 375.50,412.34 C390.71,412.87 395.07,413.95 403.30,419.21 C407.22,421.71 408.05,422.74 407.80,424.79 C407.34,428.65 404.60,429.85 401.26,427.68 C393.03,422.32 390.02,421.56 375.50,421.18 L 361.50 420.81 L 364.00 423.49 C365.38,424.97 367.74,426.91 369.25,427.80 C372.83,429.92 373.64,432.63 371.44,435.07 C370.48,436.13 369.26,437.00 368.74,437.00 C367.47,437.00 352.27,425.03 348.56,421.11 C344.17,416.46 343.00,417.00 343.00,423.73 C343.00,428.55 343.56,430.38 346.57,435.25 C350.33,441.34 350.60,443.59 347.78,445.37 C346.37,446.26 345.34,445.76 342.13,442.63 C337.65,438.25 335.57,433.95 333.97,425.74 C331.95,415.31 326.94,412.18 308.77,410.00 C298.54,408.77 288.19,405.80 282.32,402.41 C277.48,399.61 275.72,399.42 274.00,401.50 C273.03,402.67 273.02,403.62 273.95,405.87 C276.32,411.61 283.90,416.97 297.50,422.53 C314.39,429.44 321.00,438.04 321.00,453.10 C321.00,459.92 319.78,463.00 317.09,463.00 C314.14,463.00 313.28,460.99 312.79,453.00 C312.21,443.68 310.24,439.74 304.25,435.94 C298.68,432.41 295.00,432.06 295.00,435.05 C295.00,437.44 292.66,442.24 289.41,446.52 C288.15,448.18 286.55,451.78 285.86,454.52 C283.91,462.23 281.93,463.78 278.46,460.32 C276.02,457.88 277.15,451.72 281.62,443.17 C285.09,436.53 285.21,435.97 283.76,433.75 C282.91,432.46 278.35,429.47 273.62,427.12 C263.70,422.18 258.10,416.58 255.15,408.64 C253.66,404.63 252.71,403.44 250.85,403.21 C248.81,402.95 248.06,403.77 245.78,408.71 C244.30,411.89 241.05,416.82 238.55,419.66 C235.90,422.66 234.00,425.80 234.01,427.16 C234.01,428.52 236.14,431.98 239.06,435.39 C248.20,446.07 250.59,454.14 244.80,454.81 C242.46,455.08 241.76,454.47 239.60,450.31 C236.44,444.20 223.47,430.61 221.52,431.36 C220.73,431.66 219.17,433.71 218.05,435.91 C216.37,439.20 216.00,441.82 216.00,450.42 C216.00,459.74 215.78,461.05 214.09,461.95 C212.65,462.72 211.71,462.55 210.21,461.24 ZM 157.00 434.57 C157.00,434.10 157.97,431.05 159.15,427.80 C160.71,423.54 162.09,421.49 164.10,420.45 C168.14,418.36 170.93,418.55 170.33,420.86 C169.81,422.85 157.00,436.03 157.00,434.57 ZM 145.00 235.86 C139.77,234.25 130.32,231.56 124.00,229.89 C117.68,228.22 112.17,226.53 111.77,226.14 C111.37,225.76 111.51,223.74 112.08,221.67 C112.87,218.81 113.53,218.03 114.81,218.44 C115.74,218.73 119.88,219.88 124.00,220.99 C128.12,222.10 134.88,223.94 139.00,225.09 C143.12,226.25 148.18,227.65 150.23,228.21 C154.33,229.34 157.00,228.77 157.00,226.76 C157.00,225.59 140.58,198.43 135.86,191.81 L 133.91 189.06 L 137.58 187.53 C139.59,186.69 141.59,186.00 142.01,186.00 C142.72,186.00 166.53,223.62 167.62,226.46 C167.89,227.17 166.81,228.25 165.15,228.94 C161.59,230.41 158.33,233.78 157.84,236.49 C157.33,239.27 155.80,239.20 145.00,235.86 ZM 354.75 231.91 C353.79,230.22 353.00,228.49 353.00,228.05 C353.00,227.62 354.91,226.58 357.25,225.73 C362.99,223.64 374.73,220.00 375.71,220.00 C376.92,220.00 378.86,226.97 377.83,227.60 C377.19,228.00 356.93,235.04 356.55,234.99 C356.52,234.99 355.71,233.60 354.75,231.91 ZM 298.25 149.59 C296.46,149.04 295.00,147.95 295.00,147.16 C295.00,145.93 303.54,126.12 304.48,125.19 C304.74,124.93 310.67,127.58 311.73,128.44 C312.10,128.74 302.96,149.45 302.20,150.04 C301.81,150.34 300.04,150.14 298.25,149.59 Z" fill="rgb(254,254,254)"/>
</g>
</svg>